# xmcd
#
# Track frame offsets: 
#        150
#        12808
#        28147
#        41392
#        56427
#        70557
#        82937
#        96981
#        107416
#        124222
#        136684
#        150999
#        162953
#
# Disc length: 2360 seconds
#
# Revision: 2
# Processed by: cddbd v1.5.2PL0 Copyright (c) Steve Scherf et al.
# Submitted via: ExactAudioCopy v0.99pb5
#
DISCID=9009360d
DTITLE=Justin Trevino - Travelin' Singin' Man
DYEAR=2000
DGENRE=Country
TTITLE0=Alright I'll Sign The Papers
TTITLE1=She Knows My Weaknesses
TTITLE2=Travelin' Singin' Man
TTITLE3=Brand New Mister Me
TTITLE4=Where Were You
TTITLE5=Who Will Buy The Wine
TTITLE6=So Easy To Forgive Her
TTITLE7=Leavin' And Sayin' Goodbye
TTITLE8=Unloved Unwanted
TTITLE9=Feel Again
TTITLE10=You Can't Get Here From There
TTITLE11=Waltz Of The Wind
TTITLE12=One More Drink And Then I'll Go
EXTD=ID3G: 2
EXTT0=
EXTT1=
EXTT2=
EXTT3=
EXTT4=
EXTT5=
EXTT6=
EXTT7=
EXTT8=
EXTT9=
EXTT10=
EXTT11=
EXTT12=
PLAYORDER=
